<svg viewBox="0 0 512 512" xmlns="http://www.w3.org/2000/svg" role="img" aria-label="Foundterra">
  <defs><linearGradient id="bg" x1="64" y1="40" x2="448" y2="472" gradientUnits="userSpaceOnUse"><stop stop-color="#7657FF"/><stop offset="1" stop-color="#4C2CCF"/></linearGradient></defs>
  <rect x="20" y="20" width="472" height="472" rx="112" fill="url(#bg)"/>
  <path fill-rule="evenodd" clip-rule="evenodd" d="M256 96 416 376c4 8-1 16-12 16H108c-11 0-16-8-12-16L256 96Zm0 20-45 85 31-24 14 22 14-22 31 24-45-85Zm0 109c15 14 24 40 24 66v43l28 45H204l28-45v-43c0-26 9-52 24-66Z" fill="#fff"/>
</svg>
