<svg width="827" height="694" viewBox="0 0 827 694" fill="none" xmlns="http://www.w3.org/2000/svg" role="img" aria-label="Foundterra">
  <path fill-rule="evenodd" clip-rule="evenodd" d="M412.817 0L824.817 676C830.317 685.5 823.317 694 809.317 694H16.3169C2.31689 694 -3.68311 685 2.31689 676L412.817 0ZM412.817 19L297.317 241L377.317 177L412.817 233L447.317 177L528.317 241L412.817 19ZM412.317 278C434.317 299 448.317 338 448.317 377V455L493.317 531V577L436.317 535V578L558.317 694H266.317L385.317 578V535L329.317 577V531L375.317 455V377C375.317 338 390.317 299 412.317 278Z" fill="white"/>
</svg>
